<svg xmlns="http://www.w3.org/2000/svg" width="56" height="56" viewBox="0 0 56 56">
  <metadata><?xpacket begin="﻿" id="W5M0MpCehiHzreSzNTczkc9d"?>
<x:xmpmeta xmlns:x="adobe:ns:meta/" x:xmptk="Adobe XMP Core 5.6-c138 79.159824, 2016/09/14-01:09:01        ">
   <rdf:RDF xmlns:rdf="http://www.w3.org/1999/02/22-rdf-syntax-ns#">
      <rdf:Description rdf:about=""/>
   </rdf:RDF>
</x:xmpmeta>
                                                                                                    
                                                                                                    
                                                                                                    
                                                                                                    
                                                                                                    
                                                                                                    
                                                                                                    
                                                                                                    
                                                                                                    
                                                                                                    
                                                                                                    
                                                                                                    
                                                                                                    
                                                                                                    
                                                                                                    
                                                                                                    
                                                                                                    
                                                                                                    
                                                                                                    
                                                                                                    
                           
<?xpacket end="w"?></metadata>
<defs>
    <style>
      .cls-1 {
        fill: #a5a8b0;
        fill-rule: evenodd;
      }
    </style>
  </defs>
  <path id="_" data-name="" class="cls-1" d="M45.753,37.24a2.2,2.2,0,0,1,.437,1.285Q45.972,40.1,43.2,39.7a7.835,7.835,0,0,0-4.011.147H39.044a5.541,5.541,0,0,1-2.462-1.155,16.113,16.113,0,0,1-1.841-1.78,16.279,16.279,0,0,1-1.2-1.393,1.54,1.54,0,0,0-1.5-.735q-1.2.185-1.094,1.742a4.064,4.064,0,0,1-.437,2.441,1.94,1.94,0,0,1-1.823.752,25.313,25.313,0,0,1-2.625-.093,11.272,11.272,0,0,1-5.98-2.237,25.516,25.516,0,0,1-3.865-3.926,2.333,2.333,0,0,1-.292-0.348C15.852,33,15.779,32.9,15.706,32.8a0.77,0.77,0,0,1-.109-0.129,0.175,0.175,0,0,1-.037-0.091,2.4,2.4,0,0,1-.219-0.257,0.925,0.925,0,0,1-.146-0.257,0.757,0.757,0,0,1-.109-0.128,0.179,0.179,0,0,1-.037-0.091,1.129,1.129,0,0,1-.182-0.239,2.7,2.7,0,0,0-.183-0.275,0.084,0.084,0,0,1-.091-0.055,0.234,0.234,0,0,0-.055-0.092c-0.073-.122-0.146-0.251-0.219-0.385a2.917,2.917,0,0,0-.219-0.349c-0.073-.122-0.146-0.238-0.219-0.348s-0.146-.214-0.219-0.313a0.812,0.812,0,0,1-.109-0.127,0.184,0.184,0,0,1-.037-0.093,0.944,0.944,0,0,1-.182-0.256,0.966,0.966,0,0,0-.182-0.256,0.234,0.234,0,0,0-.036-0.13,0.173,0.173,0,0,1-.036-0.091,0.946,0.946,0,0,1-.182-0.257,0.985,0.985,0,0,0-.182-0.257,0.227,0.227,0,0,0-.036-0.128,0.177,0.177,0,0,1-.037-0.092q-0.657-1.1-1.276-2.256t-1.2-2.367Q9.726,22.6,9.288,21.647a4.861,4.861,0,0,1-.438-2.053,2.406,2.406,0,0,1,1.568-.458q0.948,0.019,1.933.018,0.875,0,2.006-.055a3.623,3.623,0,0,1,1.787.275,2.192,2.192,0,0,1,.693,1.009q0.364,0.825.693,1.413a16.669,16.669,0,0,0,.93,1.926q0.492,0.864.966,1.67a0.888,0.888,0,0,1,.128.165,0.672,0.672,0,0,0,.091.129,0.137,0.137,0,0,0,.018.091c0.012,0.014.03,0.032,0.054,0.055a0.178,0.178,0,0,0,.055.129l0.091,0.091,0.073,0.073a0.647,0.647,0,0,1,.091.183,0.233,0.233,0,0,0,.055.111l0.073,0.072c0.049,0.073.091,0.135,0.128,0.183a0.64,0.64,0,0,1,.091.184q0.4,0.514.93,1.229a1.2,1.2,0,0,0,1.185.6q0.656-.11.8-1.358a19.572,19.572,0,0,0,.146-2.237V24.876q0.036-1.175-.036-2.312a4.17,4.17,0,0,0-.4-1.723,1.384,1.384,0,0,0-.82-0.716,4.182,4.182,0,0,1-1.076-.532,2.275,2.275,0,0,1,1.7-1.175,15.271,15.271,0,0,1,2.753-.22q1.313,0,2.862.074a2.3,2.3,0,0,1,2.024.88,3.788,3.788,0,0,1,.383,2.366,22.872,22.872,0,0,0-.164,2.624,0.455,0.455,0,0,0-.073.257v1.357a0.106,0.106,0,0,0-.073.073V26.2a0.064,0.064,0,0,0,.073.074v0.807c0.048,0,.073.006,0.073,0.018v0.276a0.064,0.064,0,0,1,.073.072v0.149L30.8,27.665v0.148h0.073v0.145c0.048,0,.073.006,0.073,0.019v0.056a0.064,0.064,0,0,0,.073.073v0.073a0.106,0.106,0,0,1,.073.075,0.064,0.064,0,0,1,.073.072L31.24,28.4a0.111,0.111,0,0,1,.073.075h0.073v0.073a0.147,0.147,0,0,1,.091.018c0.012,0.013.03,0.032,0.055,0.056a1.768,1.768,0,0,0,1.167-.661c0.292-.365.559-0.733,0.8-1.1,0.048-.074.091-0.135,0.128-0.184a1.233,1.233,0,0,1,.091-0.11,0.1,0.1,0,0,1,.073-0.073,0.212,0.212,0,0,1,.073-0.147,0.524,0.524,0,0,0,.091-0.11,0.058,0.058,0,0,1,.055-0.037,0.146,0.146,0,0,1,.018-0.091l0.055-.055a0.094,0.094,0,0,1,.036-0.091,0.061,0.061,0,0,0,.036-0.055,0.1,0.1,0,0,0,.073-0.074,0.845,0.845,0,0,0,.128-0.164,1.061,1.061,0,0,0,.091-0.2,0.9,0.9,0,0,0,.109-0.13,0.176,0.176,0,0,0,.036-0.091,0.945,0.945,0,0,0,.109-0.128,0.184,0.184,0,0,0,.036-0.092q0.438-.734.839-1.522t0.838-1.707q0.292-.622.638-1.486a1.56,1.56,0,0,1,.821-1.01,4.481,4.481,0,0,1,2.005-.238q1.167,0.091,2.3.091,0.948,0,2.279-.037a1.638,1.638,0,0,1,1.659.624,2.266,2.266,0,0,1-.255,1.633,15.437,15.437,0,0,1-.693,1.449q-0.73,1.1-1.44,2t-1.4,1.816a0.356,0.356,0,0,0-.091.128,0.254,0.254,0,0,1-.054.092,0.1,0.1,0,0,0-.073.074,0.084,0.084,0,0,0-.091.055,0.242,0.242,0,0,1-.055.091,0.092,0.092,0,0,1-.036.091,0.061,0.061,0,0,0-.036.056l-0.091.092c-0.013.013-.031,0.03-0.055,0.056-0.049.048-.091,0.091-0.128,0.128l-0.091.093q-0.4.547-.948,1.3a2.427,2.427,0,0,0-.51,1.56,1.75,1.75,0,0,0,.547,1.083q0.474,0.459.912,0.9,1.057,0.989,1.841,1.778a16.479,16.479,0,0,1,1.586,1.89h0A13.631,13.631,0,0,1,45.753,37.24Z"/>
</svg>
