<svg xmlns="http://www.w3.org/2000/svg" width="56" height="56" viewBox="0 0 56 56">
  <metadata><?xpacket begin="﻿" id="W5M0MpCehiHzreSzNTczkc9d"?>
<x:xmpmeta xmlns:x="adobe:ns:meta/" x:xmptk="Adobe XMP Core 5.6-c138 79.159824, 2016/09/14-01:09:01        ">
   <rdf:RDF xmlns:rdf="http://www.w3.org/1999/02/22-rdf-syntax-ns#">
      <rdf:Description rdf:about=""/>
   </rdf:RDF>
</x:xmpmeta>
                                                                                                    
                                                                                                    
                                                                                                    
                                                                                                    
                                                                                                    
                                                                                                    
                                                                                                    
                                                                                                    
                                                                                                    
                                                                                                    
                                                                                                    
                                                                                                    
                                                                                                    
                                                                                                    
                                                                                                    
                                                                                                    
                                                                                                    
                                                                                                    
                                                                                                    
                                                                                                    
                           
<?xpacket end="w"?></metadata>
<defs>
    <style>
      .cls-1 {
        fill: #a5a8b0;
        fill-rule: evenodd;
      }
    </style>
  </defs>
  <path id="_" data-name="" class="cls-1" d="M46.144,20.517q0.364,3.778.364,6.015V29.4q0,2.311-.364,6.091a9.082,9.082,0,0,1-1.459,3.741,4.529,4.529,0,0,1-2.17,1.339,11.672,11.672,0,0,1-1.623.276q-1.933.148-4.212,0.22t-4.248.11q-1.969.036-4.594,0.037-3.137-.036-5.233-0.074t-4.212-.11q-2.115-.072-3.245-0.183-0.621-.11-1.841-0.312a4.263,4.263,0,0,1-2.315-1.3,8.431,8.431,0,0,1-1.459-3.741Q9.168,31.708,9.168,29.4V26.533q0-2.273.365-6.015a8.49,8.49,0,0,1,1.459-3.743,4.13,4.13,0,0,1,2.17-1.376,15.435,15.435,0,0,1,1.622-.239Q16.716,15.013,19,14.94t4.248-.111q1.969-.037,4.595-0.037t4.594,0.037q1.969,0.039,4.248.111t4.212,0.219q0.547,0.075,1.623.275a4.2,4.2,0,0,1,2.17,1.34,8.188,8.188,0,0,1,1.459,3.743h0ZM34.11,27.634L24.046,22.351V32.917l8.824-4.623h0Z"/>
</svg>
