<svg xmlns="http://www.w3.org/2000/svg" width="56" height="56" viewBox="0 0 56 56">
  <metadata></metadata>
<defs>
    <style>
      .cls-1 {
        fill: #a5a8b0;
        fill-rule: evenodd;
      }
    </style>
  </defs>
  <path id="_copy" data-name=" copy" class="cls-1" d="M24.089,47.77V30.6H18.327V23.923h5.761V19.007a10.661,10.661,0,0,1,.62-3.8,7.726,7.726,0,0,1,1.732-2.751,7.113,7.113,0,0,1,2.7-1.687,10.221,10.221,0,0,1,3.482-.57q1.823,0,3.245.092a13.548,13.548,0,0,1,1.86.2v5.944h-3.5q-2.079,0-2.68.9a4.111,4.111,0,0,0-.6,2.33v4.256h6.564L36.632,30.6H30.944V47.77H24.089Z"/>
</svg>
