<?xml version="1.0" encoding="utf-8"?>
<!-- Generator: Adobe Illustrator 21.0.0, SVG Export Plug-In . SVG Version: 6.00 Build 0)  -->
<svg version="1.1" id="Layer_1" xmlns="http://www.w3.org/2000/svg" xmlns:xlink="http://www.w3.org/1999/xlink" x="0px" y="0px"
	 viewBox="0 0 39.3 44" style="enable-background:new 0 0 39.3 44;" xml:space="preserve">
<style type="text/css">
	.st0{fill:#163C8E;}
</style>
<g>
	<path class="st0" d="M14.9,25c-0.3,0.4-0.5,1.1-0.5,2c0,0.9,0.2,1.5,0.5,2s0.8,0.7,1.5,0.7c1.3,0,2-0.9,2-2.6c0-1.8-0.7-2.7-2-2.7
		C15.7,24.3,15.2,24.5,14.9,25z"/>
	<path class="st0" d="M9.1,26.9c0-1.7-0.7-2.5-2.2-2.5H5.9v5.1h0.7C8.3,29.5,9.1,28.6,9.1,26.9z"/>
	<path class="st0" d="M37,17.8V11L26.4,0H2.3v17.8H0v17.6h2.3V44H37v-1v-7.6h2.3V17.8H37z M27,3.5l6.6,6.9H27V3.5z M4.3,2H25v10.4
		h10v5.4H4.3V2z M25.6,29.6c0.6,0,1.2-0.1,2-0.4v1.4C27,30.8,26.3,31,25.5,31c-1.1,0-2-0.3-2.6-1c-0.6-0.7-0.9-1.7-0.9-3
		c0-0.8,0.1-1.5,0.4-2.1s0.7-1.1,1.3-1.4c0.6-0.3,1.2-0.5,2-0.5c0.8,0,1.5,0.2,2.3,0.6l-0.5,1.4c-0.3-0.1-0.6-0.3-0.9-0.4
		s-0.6-0.2-0.9-0.2c-0.6,0-1.1,0.2-1.5,0.7s-0.5,1.1-0.5,2C23.6,28.7,24.3,29.6,25.6,29.6z M20.1,26.9c0,1.3-0.3,2.3-1,3
		c-0.6,0.7-1.6,1-2.8,1s-2.1-0.3-2.8-1c-0.6-0.7-1-1.7-1-3c0-1.3,0.3-2.3,1-3c0.6-0.7,1.6-1,2.8-1s2.1,0.3,2.8,1
		C19.8,24.6,20.1,25.6,20.1,26.9z M4.3,23h2.5c1.3,0,2.3,0.3,3,1c0.7,0.7,1.1,1.6,1.1,2.8c0,1.3-0.4,2.3-1.1,3c-0.7,0.7-1.8,1-3.2,1
		H4.3V23z M35,42H4.3v-6.6H35V42z"/>
</g>
</svg>
