<?xml version="1.0" encoding="utf-8"?>
<!-- Generator: Adobe Illustrator 21.0.0, SVG Export Plug-In . SVG Version: 6.00 Build 0)  -->
<svg version="1.1" id="Layer_1" xmlns="http://www.w3.org/2000/svg" xmlns:xlink="http://www.w3.org/1999/xlink" x="0px" y="0px"
	 viewBox="0 0 39.3 44" style="enable-background:new 0 0 39.3 44;" xml:space="preserve">
<style type="text/css">
	.st0{fill:#163C8E;}
</style>
<path class="st0" d="M37,17.8V11L26.4,0H2.3v17.8H0v17.6h2.3V44H37v-1v-7.6h2.3V17.8H37z M27,3.5l6.6,6.9H27V3.5z M4.3,2H25v10.4h10
	v5.4H4.3V2z M23.2,26.1v1.4h-2.7v2h2.9v1.4h-4.5V23h4.5v1.4h-2.9v1.7H23.2z M10.2,23H12l1.7,2.8l1.7-2.8h1.8l-2.5,3.9l2.7,4h-1.9
	l-1.8-3l-1.8,3H10l2.6-4L10.2,23z M4.3,23h4.5v1.4H5.9v1.7h2.7v1.4H5.9v2h2.9v1.4H4.3V23z M35,42H4.3v-6.6H35V42z"/>
</svg>
