<?xml version="1.0" encoding="utf-8"?>
<!-- Generator: Adobe Illustrator 21.0.0, SVG Export Plug-In . SVG Version: 6.00 Build 0)  -->
<svg version="1.1" id="Layer_1" xmlns="http://www.w3.org/2000/svg" xmlns:xlink="http://www.w3.org/1999/xlink" x="0px" y="0px"
	 viewBox="0 0 39.3 44" style="enable-background:new 0 0 39.3 44;" xml:space="preserve">
<style type="text/css">
	.st0{fill:#163C8E;}
</style>
<g>
	<path class="st0" d="M37,17.8V11L26.4,0H2.3v17.8H0v17.6h2.3V44H37v-1v-7.6h2.3V17.8H37z M27,3.5l6.6,6.9H27V3.5z M4.3,2H25v10.4
		h10v5.4H4.3V2z M24.7,26.4v1.4h-2.7v3.1h-1.6V23h4.5v1.4h-2.9v2H24.7z M18.3,26.9c0,1.3-0.4,2.3-1.1,3c-0.7,0.7-1.8,1-3.2,1h-2.2
		V23h2.5c1.3,0,2.3,0.3,3,1C17.9,24.7,18.3,25.7,18.3,26.9z M4.3,23h2.5c1,0,1.7,0.2,2.2,0.6c0.5,0.4,0.7,1,0.7,1.8
		c0,0.8-0.3,1.5-0.8,1.9c-0.5,0.4-1.3,0.7-2.3,0.7H5.9v2.8H4.3V23z M35,42H4.3v-6.6H35V42z"/>
	<path class="st0" d="M7.6,26.4C7.9,26.2,8,25.9,8,25.5c0-0.4-0.1-0.7-0.3-0.9c-0.2-0.2-0.5-0.3-1-0.3H5.9v2.3h0.5
		C7,26.7,7.4,26.6,7.6,26.4z"/>
	<path class="st0" d="M13.4,29.5h0.7c1.6,0,2.4-0.9,2.4-2.6c0-1.7-0.7-2.5-2.2-2.5h-0.9V29.5z"/>
</g>
</svg>
