<?xml version="1.0" encoding="utf-8"?>
<!-- Generator: Adobe Illustrator 21.0.0, SVG Export Plug-In . SVG Version: 6.00 Build 0)  -->
<svg version="1.1" id="Layer_1" xmlns="http://www.w3.org/2000/svg" xmlns:xlink="http://www.w3.org/1999/xlink" x="0px" y="0px"
	 viewBox="0 0 26.8 12.1" style="enable-background:new 0 0 26.8 12.1;" xml:space="preserve">
<style type="text/css">
	.st0{fill:#53698F;}
</style>
<g>
	<path class="st0" d="M26.5,0H0.3C0.1,0,0,0.1,0,0.3v1.5C0,1.9,0.1,2,0.3,2h26.3c0.1,0,0.3-0.1,0.3-0.3V0.3C26.8,0.1,26.7,0,26.5,0z
		"/>
	<path class="st0" d="M26.5,5.1H0.3C0.1,5.1,0,5.2,0,5.3v1.5C0,7,0.1,7.1,0.3,7.1h26.3c0.1,0,0.3-0.1,0.3-0.3V5.3
		C26.8,5.2,26.7,5.1,26.5,5.1z"/>
	<path class="st0" d="M26.5,10.1H0.3c-0.1,0-0.3,0.1-0.3,0.3v1.5c0,0.1,0.1,0.3,0.3,0.3h26.3c0.1,0,0.3-0.1,0.3-0.3v-1.5
		C26.8,10.2,26.7,10.1,26.5,10.1z"/>
</g>
</svg>
