<?xml version="1.0" encoding="utf-8"?>
<!-- Generator: Adobe Illustrator 21.0.0, SVG Export Plug-In . SVG Version: 6.00 Build 0)  -->
<svg version="1.1" id="Layer_1" xmlns="http://www.w3.org/2000/svg" xmlns:xlink="http://www.w3.org/1999/xlink" x="0px" y="0px"
	 viewBox="0 0 103.6 85.9" style="enable-background:new 0 0 103.6 85.9;" xml:space="preserve">
<style type="text/css">
	.st0{fill:#242930;}
</style>
<g>
	<g>
		<path class="st0" d="M97.3,81.5L97.3,81.5c-0.1,0-2.8-1.3-5.8-3.8c-1.5-1.3-3-2.9-4.3-4.8c-1.1-1.6-1.9-3.4-2.5-5.5
			c0,0,0.1-0.1,0.1-0.1c4.6-3.5,8.4-7.8,11.1-12.5c2.6-4.8,4.1-10.1,4.1-15.6c0-5.5-1.4-10.7-4-15.4c-3.9-7.1-10.3-13-18.2-17.2
			C69.8,2.4,60.3,0,50,0C36.3,0,23.9,4.3,14.8,11.3C10.3,14.8,6.6,19,4,23.7c-2.6,4.7-4,9.9-4,15.4c0,5.5,1.4,10.7,4,15.4
			c3.9,7.1,10.3,13,18.2,17.2c8,4.2,17.5,6.6,27.8,6.6c2.4,0,5.7-0.4,8.4-0.7c1.6-0.2,3-0.4,3.8-0.5c1,0.9,2.9,2.5,5.9,4.1
			c4.4,2.4,11.1,4.7,20.1,4.7c2.7,0,5.5-0.2,8.6-0.7l6.8-1L97.3,81.5z M70,77.7c-2-1.1-3.4-2.1-4.3-2.9c-0.5-0.4-0.8-0.7-1-0.9
			c-0.1-0.1-0.2-0.2-0.2-0.2l0,0l0,0l-0.7-0.8L62.6,73c0,0-0.1,0-0.4,0.1c-0.8,0.1-3,0.5-5.4,0.7c-2.4,0.3-5.1,0.5-6.9,0.5
			c-12.8,0-24.4-4-32.7-10.5c-4.1-3.2-7.5-7-9.8-11.2C5.2,48.5,4,43.9,4,39.2c0-4.8,1.2-9.3,3.5-13.5c3.4-6.3,9.2-11.7,16.6-15.5
			C31.4,6.3,40.4,4,50,4c12.8,0,24.4,4,32.7,10.5c4.1,3.2,7.5,7,9.8,11.2c2.3,4.2,3.5,8.7,3.5,13.5c0,4.8-1.3,9.4-3.6,13.7
			c-2.3,4.2-5.7,8.1-10,11.3c-0.2,0.1-0.5,0.3-0.7,0.5c-0.2,0.2-0.4,0.3-0.4,0.3l-1.1,0.8l0.3,1.3c0.7,3.2,2,5.9,3.5,8.2
			c2,2.9,4.3,5.1,6.4,6.7c-0.7,0-1.5,0.1-2.2,0.1C79.9,81.9,73.9,79.8,70,77.7z"/>
		<path class="st0" d="M51.6,17.4c-2.6,0-4.9,0.6-6.7,2c-1.8,1.3-3.3,3.4-4.4,6.1c-0.2,0.5,0,1,0.4,1.3l3.1,1.7
			c0.3,0.1,0.6,0.2,0.8,0.1s0.5-0.3,0.6-0.6c0.8-1.9,1.7-3.3,2.7-4.2c1-0.9,2.1-1.3,3.4-1.3c1.6,0,2.8,0.5,3.7,1.4
			c0.9,1,1.4,2.1,1.4,3.7c0,1.1-0.3,2.2-0.8,3.3c-0.5,1-1.7,2.6-3.6,4.6l0,0c-0.1,0.1-0.3,0.3-0.4,0.5l0,0c-2.3,2.6-3.8,4.8-4.4,6.9
			l0,0c-0.2,0.7-0.3,1.5-0.4,2.4c-0.1,0.9-0.1,1.9-0.1,3v1c0,0.3,0.1,0.5,0.3,0.7s0.4,0.3,0.7,0.3h3.3c0.3,0,0.6-0.1,0.8-0.4
			c0.2-0.2,0.3-0.5,0.2-0.8c0-0.2-0.1-0.4-0.1-0.6c0-0.2,0-0.5,0-1c0-1.6,0.3-3,0.9-4.2c0.6-1.2,1.9-2.9,3.9-4.9
			c2.3-2.3,3.8-4.1,4.5-5.7c0.7-1.5,1.1-3.3,1.1-5.2c0-2.9-1-5.4-3.1-7.3C57.4,18.3,54.7,17.4,51.6,17.4z"/>
		<circle class="st0" cx="50" cy="58.7" r="3.5"/>
	</g>
</g>
</svg>
