<?xml version="1.0" encoding="utf-8"?>
<!-- Generator: Adobe Illustrator 21.0.0, SVG Export Plug-In . SVG Version: 6.00 Build 0)  -->
<svg version="1.1" id="Layer_1" xmlns="http://www.w3.org/2000/svg" xmlns:xlink="http://www.w3.org/1999/xlink" x="0px" y="0px"
	 viewBox="0 0 20.6 20.6" style="enable-background:new 0 0 20.6 20.6;" xml:space="preserve">
<style type="text/css">
	.st0{fill:#0A3C90;}
</style>
<path class="st0" d="M20.5,19.1l-5.3-5.3c1.1-1.5,1.8-3.3,1.8-5.3c0-4.7-3.8-8.5-8.5-8.5C3.8,0,0,3.8,0,8.5c0,4.7,3.8,8.5,8.5,8.5
	c2,0,3.8-0.7,5.3-1.8l5.3,5.3c0.1,0.1,0.3,0.1,0.4,0l1.1-1.1C20.6,19.3,20.6,19.2,20.5,19.1z M3.9,13.2C2.7,12,2,10.3,2,8.5
	c0-1.8,0.7-3.4,1.9-4.6C5.1,2.7,6.7,2,8.5,2c1.8,0,3.4,0.7,4.6,1.9c1.2,1.2,1.9,2.8,1.9,4.6c0,1.8-0.7,3.4-1.9,4.6
	c-1.2,1.2-2.8,1.9-4.6,1.9C6.7,15.1,5.1,14.3,3.9,13.2z"/>
</svg>
