<?xml version="1.0" encoding="utf-8"?>
<!-- Generator: Adobe Illustrator 21.0.0, SVG Export Plug-In . SVG Version: 6.00 Build 0)  -->
<svg version="1.1" id="Layer_1" xmlns="http://www.w3.org/2000/svg" xmlns:xlink="http://www.w3.org/1999/xlink" x="0px" y="0px"
	 viewBox="0 0 23.7 19.7" style="enable-background:new 0 0 23.7 19.7;" xml:space="preserve">
<style type="text/css">
	.st0{fill:#53698F;}
</style>
<path class="st0" d="M23.6,9.7L0.3,0C0.1-0.1-0.1,0.1,0,0.3l5.6,9.5c0,0.1,0,0.1,0,0.2L0,19.4c-0.1,0.2,0.1,0.4,0.2,0.3L23.6,10
	C23.8,10,23.8,9.7,23.6,9.7z M7.1,10.6h10.2c0.2,0,0.3,0.3,0.1,0.4L3.9,16.6c-0.2,0.1-0.3-0.1-0.2-0.3l3.3-5.6
	C7,10.6,7,10.6,7.1,10.6z M6.9,9L3.6,3.4C3.5,3.2,3.7,3.1,3.9,3.1l13.6,5.6c0.2,0.1,0.1,0.4-0.1,0.4H7.1C7,9.1,7,9.1,6.9,9z"/>
</svg>
