<?xml version="1.0" encoding="utf-8"?>
<!-- Generator: Adobe Illustrator 21.0.0, SVG Export Plug-In . SVG Version: 6.00 Build 0)  -->
<svg version="1.1" id="Layer_1" xmlns="http://www.w3.org/2000/svg" xmlns:xlink="http://www.w3.org/1999/xlink" x="0px" y="0px"
	 viewBox="0 0 37.4 28.6" style="enable-background:new 0 0 37.4 28.6;" xml:space="preserve">
<style type="text/css">
	.st0{fill:#53698F;}
</style>
<g>
	<path class="st0" d="M37.4,14.2c-0.1-0.6-0.3-1.2-0.6-1.8c-0.6-1.1-1.6-1.8-2.5-2.5c-1-0.6-2-1.1-3.1-1.5l-0.1,0.2
		c1,0.5,2,1.1,2.8,1.7c0.8,0.7,1.6,1.5,2,2.4c0.2,0.5,0.3,0.9,0.3,1.4c0,0.5-0.1,0.9-0.3,1.4c-0.4,0.9-1.1,1.6-1.9,2.2
		c-1.7,1.2-3.7,1.9-5.8,2.4c-2.1,0.5-4.2,0.7-6.4,0.8l0.2,3.1c2.3-0.3,4.6-0.8,6.8-1.6c2.2-0.8,4.4-1.8,6.2-3.4
		c0.9-0.8,1.7-1.8,2.1-3.1C37.4,15.5,37.5,14.8,37.4,14.2z"/>
	<path class="st0" d="M15.9,17.1V21c-1.6,0-3.3-0.2-4.9-0.5c-1.3-0.2-2.5-0.5-3.7-0.9C6,19.2,4.9,18.7,3.8,18
		c-1-0.7-1.9-1.6-2.3-2.6c-0.4-1-0.1-2.2,0.6-3.3c0.4-0.5,0.8-1,1.3-1.4c0.5-0.4,1-0.8,1.6-1.1c1.1-0.7,2.4-1.2,3.6-1.7L8.6,7.7
		C7.3,8,6,8.5,4.8,9c-0.6,0.3-1.2,0.6-1.8,1c-0.6,0.4-1.1,0.9-1.6,1.4c-0.5,0.6-0.9,1.2-1.1,2C0,14.2-0.1,15,0.1,15.8
		c0.2,0.8,0.6,1.5,1,2.1c0.5,0.6,1,1.1,1.6,1.6c1.1,0.9,2.4,1.6,3.7,2.2c1.3,0.6,2.6,1.1,4,1.4c1.8,0.5,3.6,0.8,5.5,1.1v4.4l5.4-5.9
		l-5.4-6V17.1z"/>
	<path class="st0" d="M9.5,4.3c0.3-0.1,0.7-0.2,1-0.2c0.4,0,0.7,0.1,0.9,0.4c0.2,0.2,0.3,0.6,0.3,0.9c0,0.4-0.1,0.8-0.4,1.1
		c-0.2,0.3-0.5,0.4-0.9,0.4H9.7v1.9h0.9c0.5,0,0.9,0.1,1.2,0.4c0.3,0.3,0.4,0.7,0.4,1.2c0,0.5-0.1,0.9-0.4,1.2
		c-0.3,0.3-0.7,0.4-1.2,0.4c-0.8,0-1.5-0.2-2.1-0.6v2.1l0.2,0.1c0.2,0.1,0.4,0.2,0.8,0.3c0.4,0.1,0.8,0.2,1.2,0.2c1,0,1.9-0.3,2.5-1
		s0.9-1.5,0.9-2.6c0-0.7-0.1-1.3-0.4-1.8c-0.3-0.5-0.7-0.9-1.2-1.1c0.3-0.2,0.6-0.6,0.8-1c0.2-0.4,0.3-0.9,0.3-1.5
		c0-0.9-0.2-1.6-0.7-2.1C12.5,2.3,11.8,2,10.9,2C10.4,2,10,2.1,9.6,2.3C9.2,2.4,8.9,2.6,8.8,2.7C8.7,2.8,8.6,2.8,8.5,2.9V5l0.3-0.2
		C8.9,4.6,9.2,4.5,9.5,4.3z"/>
	<path class="st0" d="M18.9,6.3c-0.8,0-1.4,0.3-1.8,0.8c0.1-1,0.3-1.7,0.6-2.2c0.3-0.5,0.9-0.7,1.5-0.7c0.7,0,1.4,0.2,1.9,0.6V2.7
		l-0.2-0.1c-0.1-0.1-0.4-0.2-0.7-0.3c-0.3-0.1-0.7-0.1-1.1-0.1c-1.3,0-2.3,0.6-3,1.7c-0.6,1.1-1,2.7-1,4.7c0,1.7,0.3,3.1,0.8,4.1
		c0.6,1,1.4,1.4,2.5,1.4c1,0,1.7-0.4,2.3-1.2c0.6-0.8,0.9-1.8,0.9-3c0-1.1-0.3-2-0.8-2.7C20.5,6.6,19.8,6.3,18.9,6.3z M19.5,11.5
		c-0.2,0.4-0.6,0.5-0.9,0.5c-0.4,0-0.7-0.2-1-0.6c-0.2-0.4-0.4-0.9-0.4-1.6c0-0.6,0.1-1,0.4-1.3c0.3-0.3,0.6-0.5,1-0.5
		c0.4,0,0.7,0.2,1,0.5c0.2,0.3,0.4,0.8,0.4,1.4C19.9,10.7,19.7,11.2,19.5,11.5z"/>
	<path class="st0" d="M26.2,14.1c1.1,0,1.9-0.5,2.5-1.5c0.6-1,0.9-2.5,0.9-4.5c0-2-0.3-3.4-0.9-4.5c-0.6-1-1.4-1.5-2.5-1.5
		c-1.1,0-1.9,0.5-2.6,1.5c-0.6,1-0.9,2.5-0.9,4.5c0,2,0.3,3.5,0.9,4.5C24.3,13.6,25.1,14.1,26.2,14.1z M25.2,5.1
		c0.2-0.6,0.6-0.9,1.1-0.9c0.5,0,0.8,0.3,1.1,0.9c0.2,0.6,0.3,1.6,0.3,3c0,1.4-0.1,2.4-0.3,3c-0.2,0.6-0.6,0.9-1.1,0.9
		c-0.5,0-0.8-0.3-1.1-0.9c-0.2-0.6-0.3-1.6-0.3-3C24.8,6.7,24.9,5.7,25.2,5.1z"/>
	<path class="st0" d="M31.1,3.3c0.9,0,1.7-0.7,1.7-1.7c0-0.9-0.7-1.7-1.7-1.7c-0.9,0-1.7,0.7-1.7,1.7C29.5,2.6,30.2,3.3,31.1,3.3z
		 M31.1,0.9c0.4,0,0.8,0.4,0.8,0.8c0,0.4-0.4,0.8-0.8,0.8c-0.4,0-0.8-0.4-0.8-0.8C30.4,1.2,30.7,0.9,31.1,0.9z"/>
</g>
</svg>
