<?xml version="1.0" encoding="utf-8"?>
<!-- Generator: Adobe Illustrator 21.0.0, SVG Export Plug-In . SVG Version: 6.00 Build 0)  -->
<svg version="1.1" id="Layer_1" xmlns="http://www.w3.org/2000/svg" xmlns:xlink="http://www.w3.org/1999/xlink" x="0px" y="0px"
	 viewBox="0 0 33.9 13.1" style="enable-background:new 0 0 33.9 13.1;" xml:space="preserve">
<style type="text/css">
	.st0{fill:#53698F;}
</style>
<path class="st0" d="M33.5,5.6h-1.2C31.8,2.4,29.1,0,25.8,0c-2.7,0-5,1.6-6,3.9C19,3.2,18,2.8,16.9,2.8c-1.1,0-2.1,0.4-2.8,1.1
	c-1-2.3-3.3-3.9-6-3.9c-3.3,0-6,2.4-6.5,5.6H0.4C0.2,5.6,0,5.7,0,5.8v1.5c0,0.1,0.2,0.3,0.4,0.3h1.2c0.5,3.1,3.2,5.6,6.5,5.6
	c3.3,0,6.1-2.5,6.5-5.7c0-0.1,0.1-0.2,0.1-0.4h0c0-0.6,0.3-1.2,0.7-1.6c0.4-0.4,1-0.7,1.6-0.7c0.6,0,1.2,0.3,1.6,0.7
	c0.4,0.4,0.7,1,0.7,1.6c0,0.1,0,0.3,0.1,0.4c0.4,3.2,3.2,5.7,6.5,5.7c3.3,0,6-2.4,6.5-5.6h1.2c0.2,0,0.4-0.1,0.4-0.3V5.8
	C33.9,5.7,33.7,5.6,33.5,5.6z M8.1,11.1c-1.3,0-2.4-0.5-3.2-1.3C4,9,3.5,7.8,3.5,6.6c0-1.3,0.5-2.4,1.3-3.2C5.7,2.5,6.8,2,8.1,2
	c1.3,0,2.4,0.5,3.2,1.3c0.8,0.8,1.3,2,1.3,3.2c0,1.3-0.5,2.4-1.3,3.2C10.5,10.6,9.3,11.1,8.1,11.1z M29,9.8c-0.8,0.8-2,1.3-3.2,1.3
	c-1.3,0-2.4-0.5-3.2-1.3c-0.8-0.8-1.3-2-1.3-3.2c0-1.3,0.5-2.4,1.3-3.2c0.8-0.8,2-1.3,3.2-1.3C27,2,28.2,2.5,29,3.4
	c0.8,0.8,1.3,2,1.3,3.2C30.3,7.8,29.8,9,29,9.8z"/>
</svg>
