<?xml version="1.0" encoding="utf-8"?>
<!-- Generator: Adobe Illustrator 21.0.0, SVG Export Plug-In . SVG Version: 6.00 Build 0)  -->
<svg version="1.1" id="Layer_1" xmlns="http://www.w3.org/2000/svg" xmlns:xlink="http://www.w3.org/1999/xlink" x="0px" y="0px"
	 viewBox="0 0 78 78" style="enable-background:new 0 0 78 78;" xml:space="preserve">
<style type="text/css">
	.st0{fill:#53698F;}
</style>
<g>
	<g>
		<path class="st0" d="M77.5,39H77c0,10.5-4.3,20-11.1,26.9C59,72.7,49.5,77,39,77c-10.5,0-20-4.3-26.9-11.1C5.3,59,1,49.5,1,39
			c0-10.5,4.3-20,11.1-26.9C19,5.3,28.5,1,39,1c10.5,0,20,4.3,26.9,11.1C72.7,19,77,28.5,77,39H77.5H78C78,17.5,60.5,0,39,0
			C17.5,0,0,17.5,0,39c0,21.5,17.5,39,39,39c21.5,0,39-17.5,39-39H77.5z"/>
	</g>
	<path class="st0" d="M32,50.5v-23c0-0.2,0.2-0.3,0.4-0.2l20.2,11.5c0.2,0.1,0.2,0.3,0,0.4L32.3,50.7C32.2,50.8,32,50.7,32,50.5z"/>
</g>
</svg>
