<?xml version="1.0" encoding="utf-8"?>
<!-- Generator: Adobe Illustrator 21.0.0, SVG Export Plug-In . SVG Version: 6.00 Build 0)  -->
<svg version="1.1" id="Layer_1" xmlns="http://www.w3.org/2000/svg" xmlns:xlink="http://www.w3.org/1999/xlink" x="0px" y="0px"
	 viewBox="0 0 86.7 86.7" style="enable-background:new 0 0 86.7 86.7;" xml:space="preserve">
<style type="text/css">
	.st0{fill:#53698F;}
</style>
<g>
	<path class="st0" d="M36.3,54.9v-23c0-0.2,0.2-0.3,0.4-0.2l20.2,11.5c0.2,0.1,0.2,0.3,0,0.4L36.7,55.1
		C36.5,55.2,36.3,55.1,36.3,54.9z"/>
	<g>
		<path class="st0" d="M86.2,43.4h-0.5c0,11.7-4.7,22.3-12.4,30c-7.7,7.7-18.3,12.4-30,12.4c-11.7,0-22.3-4.7-30-12.4
			C5.7,65.6,1,55.1,1,43.4c0-11.7,4.7-22.3,12.4-30C21.1,5.7,31.7,1,43.4,1c11.7,0,22.3,4.7,30,12.4c7.7,7.7,12.4,18.3,12.4,30H86.2
			h0.5C86.7,19.4,67.3,0,43.4,0C19.4,0,0,19.4,0,43.4c0,23.9,19.4,43.4,43.4,43.4c23.9,0,43.4-19.4,43.4-43.4H86.2z"/>
	</g>
</g>
</svg>
