<svg width="20" height="20.5" xmlns="http://www.w3.org/2000/svg">
                                            <style type="text/css">.st0{fill:#999999;}</style>
                                            <g>
                                            <g id="svg_1">
                                            <path id="svg_2" d="m18,5.5l-1.5,0l0,-5.5l-13,0l0,5.5l-1.5,0c-1.1,0 -2,0.9 -2,2l0,7.2c0,1.1 0.9,2 2,2l1.5,0l0,4l13,0l0,-0.7l0,-3.5l1.5,0c1.1,0 2,-0.9 2,-2l0,-7.1c0,-1.1 -0.9,-1.9 -2,-1.9zm-13.5,-4.5l11,0l0,4.5l-11,0l0,-4.5zm0,18.5l0,-6.9l11,0l0,6.9l-11,0zm14.5,-4.9c0,0.5 -0.4,1 -1,1l-1.5,0l0,-4l-13,0l0,4l-1.5,0c-0.5,0 -1,-0.4 -1,-1l0,-7.2c0,-0.5 0.4,-1 1,-1l1.5,0l13,0l1.5,0c0.5,0 1,0.4 1,1l0,7.2z" class="st0"/>
                                            <circle id="svg_3" r="0.7" cy="8.7" cx="16.8" class="st0"/>
                                            <rect id="svg_4" height="1" width="6.9" class="st0" y="15.6" x="5.6"/>
                                            <rect id="svg_5" height="1" width="8.8" class="st0" y="13.6" x="5.6"/>
                                            <rect id="svg_6" height="1" width="8.8" class="st0" y="17.6" x="5.6"/>
                                            </g>
                                            </g>
                                            </svg>