<svg width="16.6" height="16.6" xmlns="http://www.w3.org/2000/svg">
 <style type="text/css">.st0{fill:#ffffff;}</style>

 <g>
  <title>background</title>
  <rect fill="none" id="canvas_background" height="402" width="582" y="-1" x="-1"/>
 </g>
 <g>
  <title>Layer 1</title>
  <path id="svg_1" d="m16.5,15.1l-4.2,-4.2c0.8,-1.1 1.3,-2.5 1.3,-4.1c0,-3.8 -3.1,-6.8 -6.8,-6.8c-3.7,0 -6.8,3.1 -6.8,6.8c0,3.8 3.1,6.8 6.8,6.8c1.5,0 2.9,-0.5 4.1,-1.3l4.2,4.2c0.1,0.1 0.3,0.1 0.4,0l1.1,-1.1c0,0 0,-0.2 -0.1,-0.3zm-13.1,-4.9c-0.8,-0.9 -1.4,-2 -1.4,-3.4c0,-1.3 0.5,-2.5 1.4,-3.4c0.9,-0.8 2.1,-1.4 3.4,-1.4c1.3,0 2.5,0.5 3.4,1.4c0.9,0.9 1.4,2.1 1.4,3.4c0,1.3 -0.5,2.5 -1.4,3.4c-0.9,0.9 -2.1,1.4 -3.4,1.4c-1.3,0 -2.5,-0.5 -3.4,-1.4z" class="st0"/>
 </g>
</svg>