<?xml version="1.0" encoding="UTF-8"?><!DOCTYPE svg PUBLIC "-//W3C//DTD SVG 1.1//EN" "http://www.w3.org/Graphics/SVG/1.1/DTD/svg11.dtd"><svg xmlns="http://www.w3.org/2000/svg"><symbol id="360" viewBox="0 0 37.4 28.6"><style>.st0{fill:#53698f}</style><path class="st0" d="M37.4 14.2c-.1-.6-.3-1.2-.6-1.8-.6-1.1-1.6-1.8-2.5-2.5-1-.6-2-1.1-3.1-1.5l-.1.2c1 .5 2 1.1 2.8 1.7.8.7 1.6 1.5 2 2.4.2.5.3.9.3 1.4 0 .5-.1.9-.3 1.4-.4.9-1.1 1.6-1.9 2.2-1.7 1.2-3.7 1.9-5.8 2.4-2.1.5-4.2.7-6.4.8L22 24c2.3-.3 4.6-.8 6.8-1.6s4.4-1.8 6.2-3.4c.9-.8 1.7-1.8 2.1-3.1.3-.4.4-1.1.3-1.7zM15.9 17.1V21c-1.6 0-3.3-.2-4.9-.5-1.3-.2-2.5-.5-3.7-.9-1.3-.4-2.4-.9-3.5-1.6-1-.7-1.9-1.6-2.3-2.6-.4-1-.1-2.2.6-3.3.4-.5.8-1 1.3-1.4.5-.4 1-.8 1.6-1.1 1.1-.7 2.4-1.2 3.6-1.7v-.2C7.3 8 6 8.5 4.8 9c-.6.3-1.2.6-1.8 1-.6.4-1.1.9-1.6 1.4-.5.6-.9 1.2-1.1 2-.3.8-.4 1.6-.2 2.4.2.8.6 1.5 1 2.1.5.6 1 1.1 1.6 1.6 1.1.9 2.4 1.6 3.7 2.2 1.3.6 2.6 1.1 4 1.4 1.8.5 3.6.8 5.5 1.1v4.4l5.4-5.9-5.4-6v.4z"/><path class="st0" d="M9.5 4.3c.3-.1.7-.2 1-.2.4 0 .7.1.9.4.2.2.3.6.3.9 0 .4-.1.8-.4 1.1-.2.3-.5.4-.9.4h-.7v1.9h.9c.5 0 .9.1 1.2.4.3.3.4.7.4 1.2s-.1.9-.4 1.2c-.3.3-.7.4-1.2.4-.8 0-1.5-.2-2.1-.6v2.1l.2.1c.2.1.4.2.8.3.4.1.8.2 1.2.2 1 0 1.9-.3 2.5-1s.9-1.5.9-2.6c0-.7-.1-1.3-.4-1.8-.3-.5-.7-.9-1.2-1.1.3-.2.6-.6.8-1 .2-.4.3-.9.3-1.5 0-.9-.2-1.6-.7-2.1-.4-.7-1.1-1-2-1-.5 0-.9.1-1.3.3-.4.1-.7.3-.8.4-.1.1-.2.1-.3.2V5l.3-.2c.1-.2.4-.3.7-.5zM18.9 6.3c-.8 0-1.4.3-1.8.8.1-1 .3-1.7.6-2.2.3-.5.9-.7 1.5-.7.7 0 1.4.2 1.9.6V2.7l-.2-.1c-.1-.1-.4-.2-.7-.3-.3-.1-.7-.1-1.1-.1-1.3 0-2.3.6-3 1.7-.6 1.1-1 2.7-1 4.7 0 1.7.3 3.1.8 4.1.6 1 1.4 1.4 2.5 1.4 1 0 1.7-.4 2.3-1.2.6-.8.9-1.8.9-3 0-1.1-.3-2-.8-2.7-.3-.6-1-.9-1.9-.9zm.6 5.2c-.2.4-.6.5-.9.5-.4 0-.7-.2-1-.6-.2-.4-.4-.9-.4-1.6 0-.6.1-1 .4-1.3.3-.3.6-.5 1-.5s.7.2 1 .5c.2.3.4.8.4 1.4-.1.8-.3 1.3-.5 1.6zM26.2 14.1c1.1 0 1.9-.5 2.5-1.5.6-1 .9-2.5.9-4.5s-.3-3.4-.9-4.5c-.6-1-1.4-1.5-2.5-1.5s-1.9.5-2.6 1.5c-.6 1-.9 2.5-.9 4.5s.3 3.5.9 4.5c.7 1 1.5 1.5 2.6 1.5zm-1-9c.2-.6.6-.9 1.1-.9.5 0 .8.3 1.1.9.2.6.3 1.6.3 3s-.1 2.4-.3 3c-.2.6-.6.9-1.1.9-.5 0-.8-.3-1.1-.9-.2-.6-.3-1.6-.3-3-.1-1.4 0-2.4.3-3zM31.1 3.3c.9 0 1.7-.7 1.7-1.7 0-.9-.7-1.7-1.7-1.7-.9 0-1.7.7-1.7 1.7.1 1 .8 1.7 1.7 1.7zm0-2.4c.4 0 .8.4.8.8s-.4.8-.8.8-.8-.4-.8-.8c.1-.5.4-.8.8-.8z"/></symbol><symbol id="arrow-prev"><style>.st0{fill:#0a3c90}</style><g id="svg_1"><path id="svg_2" class="st0" d="M0 .7l5.4 5.4L0 11.4l.7.7 6.1-6L.7 0 0 .7z"/></g></symbol><symbol id="arrow" viewBox="0 0 6.8 12.1"><style>.st0{fill:#060606}</style><path class="st0" d="M0 .7l5.4 5.4L0 11.4l.7.7 6.1-6L.7 0 0 .7z"/></symbol><symbol id="arrow_0" viewBox="0 0 5.1 5.1"><style>.st0{fill:#53698f}</style><path class="st0" d="M2.4 5.1L0 .2C0 .1 0 0 .1 0H5c.1 0 .2.1.1.2L2.7 5.1c0 .1-.2.1-.3 0z"/></symbol><symbol id="arrow_1" viewBox="0 0 6.8 12.1"><style>.st0{fill:#0a3c90}</style><path class="st0" d="M0 .7l5.4 5.4L0 11.4l.7.7 6.1-6L.7 0 0 .7z"/></symbol><symbol id="close" viewBox="0 0 20.2 20.2"><style>.st0{fill:#53698f}</style><path class="st0" d="M11.5 10.1l8.6-8.6c.1-.1.1-.3 0-.4L19 .1c-.1-.1-.3-.1-.4 0L10 8.7 1.5.1c-.1-.1-.3-.1-.4 0l-1 1c-.1.1-.1.3 0 .4l8.6 8.6-8.6 8.6c-.1.1-.1.2 0 .3l1.1 1.1c.1.1.3.1.4 0l8.6-8.6 8.6 8.6c.1.1.3.1.4 0l1.1-1.1c.1-.1.1-.3 0-.4l-8.8-8.5z"/></symbol><symbol id="login" viewBox="0 0 11.1 14.2"><style>.st0{fill:#53698f}</style><circle class="st0" cx="5.6" cy="3.5" r="3.5"/><path class="st0" d="M7.7 8.1c-.6.3-1.4.5-2.1.5s-1.5-.2-2.2-.5c-2 1-3.4 3.3-3.4 6.1h11.1c0-2.8-1.4-5.1-3.4-6.1z"/></symbol><symbol id="look" viewBox="0 0 33.9 13.1"><style>.st0{fill:#53698f}</style><path class="st0" d="M33.5 5.6h-1.2C31.8 2.4 29.1 0 25.8 0c-2.7 0-5 1.6-6 3.9-.8-.7-1.8-1.1-2.9-1.1-1.1 0-2.1.4-2.8 1.1-1-2.3-3.3-3.9-6-3.9-3.3 0-6 2.4-6.5 5.6H.4c-.2 0-.4.1-.4.2v1.5c0 .1.2.3.4.3h1.2c.5 3.1 3.2 5.6 6.5 5.6s6.1-2.5 6.5-5.7c0-.1.1-.2.1-.4 0-.6.3-1.2.7-1.6.4-.4 1-.7 1.6-.7.6 0 1.2.3 1.6.7.4.4.7 1 .7 1.6 0 .1 0 .3.1.4.4 3.2 3.2 5.7 6.5 5.7s6-2.4 6.5-5.6h1.2c.2 0 .4-.1.4-.3V5.8c-.1-.1-.3-.2-.5-.2zM8.1 11.1c-1.3 0-2.4-.5-3.2-1.3-.9-.8-1.4-2-1.4-3.2 0-1.3.5-2.4 1.3-3.2.9-.9 2-1.4 3.3-1.4 1.3 0 2.4.5 3.2 1.3.8.8 1.3 2 1.3 3.2 0 1.3-.5 2.4-1.3 3.2-.8.9-2 1.4-3.2 1.4zM29 9.8c-.8.8-2 1.3-3.2 1.3-1.3 0-2.4-.5-3.2-1.3-.8-.8-1.3-2-1.3-3.2 0-1.3.5-2.4 1.3-3.2.8-.8 2-1.3 3.2-1.3 1.2-.1 2.4.4 3.2 1.3.8.8 1.3 2 1.3 3.2 0 1.2-.5 2.4-1.3 3.2z"/></symbol><symbol id="menu" viewBox="0 0 26.8 12.1"><style>.st0{fill:#53698f}</style><path class="st0" d="M26.5 0H.3C.1 0 0 .1 0 .3v1.5c0 .1.1.2.3.2h26.3c.1 0 .3-.1.3-.3V.3c-.1-.2-.2-.3-.4-.3zM26.5 5.1H.3c-.2 0-.3.1-.3.2v1.5c0 .2.1.3.3.3h26.3c.1 0 .3-.1.3-.3V5.3c-.1-.1-.2-.2-.4-.2zM26.5 10.1H.3c-.1 0-.3.1-.3.3v1.5c0 .1.1.3.3.3h26.3c.1 0 .3-.1.3-.3v-1.5c-.1-.2-.2-.3-.4-.3z"/></symbol><symbol id="play hover" viewBox="0 0 86.7 86.7"><style>.st0{fill:#53698f}</style><path class="st0" d="M36.3 54.9v-23c0-.2.2-.3.4-.2l20.2 11.5c.2.1.2.3 0 .4L36.7 55.1c-.2.1-.4 0-.4-.2z"/><path class="st0" d="M86.2 43.4h-.5c0 11.7-4.7 22.3-12.4 30-7.7 7.7-18.3 12.4-30 12.4s-22.3-4.7-30-12.4C5.7 65.6 1 55.1 1 43.4s4.7-22.3 12.4-30C21.1 5.7 31.7 1 43.4 1s22.3 4.7 30 12.4c7.7 7.7 12.4 18.3 12.4 30h.9C86.7 19.4 67.3 0 43.4 0 19.4 0 0 19.4 0 43.4c0 23.9 19.4 43.4 43.4 43.4 23.9 0 43.4-19.4 43.4-43.4h-.6z"/></symbol><symbol id="play" viewBox="0 0 78 78"><style>.st0{fill:#53698f}</style><path class="st0" d="M77.5 39H77c0 10.5-4.3 20-11.1 26.9C59 72.7 49.5 77 39 77s-20-4.3-26.9-11.1C5.3 59 1 49.5 1 39s4.3-20 11.1-26.9C19 5.3 28.5 1 39 1s20 4.3 26.9 11.1C72.7 19 77 28.5 77 39h1C78 17.5 60.5 0 39 0S0 17.5 0 39s17.5 39 39 39 39-17.5 39-39h-.5z"/><path class="st0" d="M32 50.5v-23c0-.2.2-.3.4-.2l20.2 11.5c.2.1.2.3 0 .4L32.3 50.7c-.1.1-.3 0-.3-.2z"/></symbol><symbol id="print-icon"><style>.st0{fill:#999}</style><g id="svg_1"><path id="svg_2" d="M18 5.5h-1.5V0h-13v5.5H2c-1.1 0-2 .9-2 2v7.2c0 1.1.9 2 2 2h1.5v4h13v-4.2H18c1.1 0 2-.9 2-2V7.4c0-1.1-.9-1.9-2-1.9zM4.5 1h11v4.5h-11V1zm0 18.5v-6.9h11v6.9h-11zM19 14.6c0 .5-.4 1-1 1h-1.5v-4h-13v4H2c-.5 0-1-.4-1-1V7.4c0-.5.4-1 1-1h16c.5 0 1 .4 1 1v7.2z" class="st0"/><circle id="svg_3" r=".7" cy="8.7" cx="16.8" class="st0"/><path id="svg_4" class="st0" d="M5.6 15.6h6.9v1H5.6z"/><path id="svg_5" class="st0" d="M5.6 13.6h8.8v1H5.6z"/><path id="svg_6" class="st0" d="M5.6 17.6h8.8v1H5.6z"/></g></symbol><symbol id="question" viewBox="0 0 103.6 85.9"><style>.st0{fill:#242930}</style><path class="st0" d="M97.3 81.5c-.1 0-2.8-1.3-5.8-3.8-1.5-1.3-3-2.9-4.3-4.8-1.1-1.6-1.9-3.4-2.5-5.5l.1-.1c4.6-3.5 8.4-7.8 11.1-12.5 2.6-4.8 4.1-10.1 4.1-15.6s-1.4-10.7-4-15.4c-3.9-7.1-10.3-13-18.2-17.2C69.8 2.4 60.3 0 50 0 36.3 0 23.9 4.3 14.8 11.3 10.3 14.8 6.6 19 4 23.7c-2.6 4.7-4 9.9-4 15.4s1.4 10.7 4 15.4c3.9 7.1 10.3 13 18.2 17.2 8 4.2 17.5 6.6 27.8 6.6 2.4 0 5.7-.4 8.4-.7 1.6-.2 3-.4 3.8-.5 1 .9 2.9 2.5 5.9 4.1 4.4 2.4 11.1 4.7 20.1 4.7 2.7 0 5.5-.2 8.6-.7l6.8-1-6.3-2.7zM70 77.7c-2-1.1-3.4-2.1-4.3-2.9-.5-.4-.8-.7-1-.9l-.2-.2-.7-.8-1.2.1s-.1 0-.4.1c-.8.1-3 .5-5.4.7-2.4.3-5.1.5-6.9.5-12.8 0-24.4-4-32.7-10.5-4.1-3.2-7.5-7-9.8-11.2C5.2 48.5 4 43.9 4 39.2c0-4.8 1.2-9.3 3.5-13.5 3.4-6.3 9.2-11.7 16.6-15.5C31.4 6.3 40.4 4 50 4c12.8 0 24.4 4 32.7 10.5 4.1 3.2 7.5 7 9.8 11.2 2.3 4.2 3.5 8.7 3.5 13.5 0 4.8-1.3 9.4-3.6 13.7-2.3 4.2-5.7 8.1-10 11.3-.2.1-.5.3-.7.5-.2.2-.4.3-.4.3l-1.1.8.3 1.3c.7 3.2 2 5.9 3.5 8.2 2 2.9 4.3 5.1 6.4 6.7-.7 0-1.5.1-2.2.1-8.3-.2-14.3-2.3-18.2-4.4z"/><path class="st0" d="M51.6 17.4c-2.6 0-4.9.6-6.7 2-1.8 1.3-3.3 3.4-4.4 6.1-.2.5 0 1 .4 1.3l3.1 1.7c.3.1.6.2.8.1s.5-.3.6-.6c.8-1.9 1.7-3.3 2.7-4.2 1-.9 2.1-1.3 3.4-1.3 1.6 0 2.8.5 3.7 1.4.9 1 1.4 2.1 1.4 3.7 0 1.1-.3 2.2-.8 3.3-.5 1-1.7 2.6-3.6 4.6-.1.1-.3.3-.4.5-2.3 2.6-3.8 4.8-4.4 6.9-.2.7-.3 1.5-.4 2.4-.1.9-.1 1.9-.1 3v1c0 .3.1.5.3.7s.4.3.7.3h3.3c.3 0 .6-.1.8-.4.2-.2.3-.5.2-.8 0-.2-.1-.4-.1-.6v-1c0-1.6.3-3 .9-4.2.6-1.2 1.9-2.9 3.9-4.9 2.3-2.3 3.8-4.1 4.5-5.7.7-1.5 1.1-3.3 1.1-5.2 0-2.9-1-5.4-3.1-7.3-2-1.9-4.7-2.8-7.8-2.8z"/><circle class="st0" cx="50" cy="58.7" r="3.5"/></symbol><symbol id="search_max" viewBox="0 0 20.6 20.6"><style>.st0{fill:#0a3c90}</style><path class="st0" d="M20.5 19.1l-5.3-5.3c1.1-1.5 1.8-3.3 1.8-5.3C17 3.8 13.2 0 8.5 0S0 3.8 0 8.5 3.8 17 8.5 17c2 0 3.8-.7 5.3-1.8l5.3 5.3c.1.1.3.1.4 0l1.1-1.1c0-.1 0-.2-.1-.3zM3.9 13.2C2.7 12 2 10.3 2 8.5c0-1.8.7-3.4 1.9-4.6C5.1 2.7 6.7 2 8.5 2c1.8 0 3.4.7 4.6 1.9C14.3 5.1 15 6.7 15 8.5c0 1.8-.7 3.4-1.9 4.6A6.42 6.42 0 0 1 8.5 15c-1.8.1-3.4-.7-4.6-1.8z"/></symbol><symbol id="search_min"><style>.st0{fill:#fff}</style><title>background</title><path fill="none" id="canvas_background" d="M-1-1h582v402H-1z"/><g><title>Layer 1</title><path id="svg_1" d="M16.5 15.1l-4.2-4.2c.8-1.1 1.3-2.5 1.3-4.1C13.6 3 10.5 0 6.8 0 3.1 0 0 3.1 0 6.8c0 3.8 3.1 6.8 6.8 6.8 1.5 0 2.9-.5 4.1-1.3l4.2 4.2c.1.1.3.1.4 0l1.1-1.1s0-.2-.1-.3zM3.4 10.2C2.6 9.3 2 8.2 2 6.8c0-1.3.5-2.5 1.4-3.4C4.3 2.6 5.5 2 6.8 2c1.3 0 2.5.5 3.4 1.4.9.9 1.4 2.1 1.4 3.4 0 1.3-.5 2.5-1.4 3.4-.9.9-2.1 1.4-3.4 1.4-1.3 0-2.5-.5-3.4-1.4z" class="st0"/></g></symbol><symbol id="sign_email" viewBox="0 0 23.7 19.7"><style>.st0{fill:#53698f}</style><path class="st0" d="M23.6 9.7L.3 0C.1-.1-.1.1 0 .3l5.6 9.5v.2L0 19.4c-.1.2.1.4.2.3L23.6 10c.2 0 .2-.3 0-.3zm-16.5.9h10.2c.2 0 .3.3.1.4L3.9 16.6c-.2.1-.3-.1-.2-.3L7 10.7c0-.1 0-.1.1-.1zM6.9 9L3.6 3.4c-.1-.2.1-.3.3-.3l13.6 5.6c.2.1.1.4-.1.4H7.1c-.1 0-.1 0-.2-.1z"/></symbol></svg>